# xmcd CD database file
# Copyright (C) 1993-1998 Ti Kan
#
# Track frame offsets:
#  150
#  13472
#  27902
#  42702
#  62387
#  80017
#  98842
#  118820
#  134590
#  149477
#  166710
#  184815
#  198710
#  212282
#  230225
#
# Disc length: 3272 seconds
#
# Revision: 1
# Processed by: cddbd v1.4b41PL1 Copyright (c) Steve Scherf et al.
# Submitted via: CDWizzard Release:4.30
#
DISCID=e10cc60f
DTITLE=Not the original artists! - 15 Country Wedding Favorites
DYEAR=1900
DGENRE=
TTITLE0=The Battle Hymn Of Love
TTITLE1=Forever's As Far As I'll Go
TTITLE2=I Cross My Heart
TTITLE3=I Swear
TTITLE4=I'll Still Be Loving You
TTITLE5=The Keeper Of The Stars
TTITLE6=Long As I Live
TTITLE7=Look At Us
TTITLE8=The Man In Love With You
TTITLE9=Nobody Loves Me Like You Do
TTITLE10=Throught The Years
TTITLE11=To Me
TTITLE12=What A Difference You've Made In My Life
TTITLE13=You And I
TTITLE14=Your Love Amazes Me
EXTD=
EXTT0=
EXTT1=
EXTT2=
EXTT3=
EXTT4=
EXTT5=
EXTT6=
EXTT7=
EXTT8=
EXTT9=
EXTT10=
EXTT11=
EXTT12=
EXTT13=
EXTT14=
PLAYORDER=
